<svg width="27" height="27" viewBox="0 0 27 27" fill="none" xmlns="http://www.w3.org/2000/svg">
<g clip-path="url(#clip0_302_98)" filter="url(#filter0_d_302_98)">
<path opacity="0.2" d="M18.9259 9.25926L13.7407 4.07408L16.1759 1.63889C16.2448 1.5689 16.327 1.51332 16.4176 1.47538C16.5082 1.43745 16.6055 1.41791 16.7037 1.41791C16.8019 1.41791 16.8992 1.43745 16.9898 1.47538C17.0804 1.51332 17.1625 1.5689 17.2315 1.63889L21.3611 5.76852C21.4311 5.83745 21.4867 5.9196 21.5246 6.01021C21.5625 6.10082 21.5821 6.19807 21.5821 6.2963C21.5821 6.39453 21.5625 6.49178 21.5246 6.58239C21.4867 6.67299 21.4311 6.75515 21.3611 6.82408L18.9259 9.25926Z" fill="#557BDD"/>
<path d="M9.7315 18.1482H5.59261C5.39616 18.1482 5.20775 18.0701 5.06883 17.9312C4.92991 17.7923 4.85187 17.6039 4.85187 17.4074V13.2685C4.85153 13.1723 4.87017 13.077 4.90671 12.9881C4.94326 12.8991 4.99699 12.8182 5.06484 12.75L16.1759 1.63889C16.2449 1.5689 16.327 1.51332 16.4176 1.47538C16.5082 1.43745 16.6055 1.41791 16.7037 1.41791C16.802 1.41791 16.8992 1.43745 16.9898 1.47538C17.0804 1.51332 17.1626 1.5689 17.2315 1.63889L21.3611 5.76852C21.4311 5.83745 21.4867 5.9196 21.5246 6.01021C21.5626 6.10082 21.5821 6.19807 21.5821 6.2963C21.5821 6.39453 21.5626 6.49178 21.5246 6.58239C21.4867 6.67299 21.4311 6.75515 21.3611 6.82408L10.25 17.9352C10.1818 18.003 10.1009 18.0568 10.012 18.0933C9.92299 18.1299 9.82769 18.1485 9.7315 18.1482V18.1482Z" stroke="#557BDD" stroke-width="1.5" stroke-linecap="round" stroke-linejoin="round"/>
<path d="M13.7407 4.07407L18.9259 9.25926" stroke="#557BDD" stroke-width="1.5" stroke-linecap="round" stroke-linejoin="round"/>
<path d="M16.3333 6.66667L7.44446 15.5556" stroke="#557BDD" stroke-width="1.5" stroke-linecap="round" stroke-linejoin="round"/>
<path d="M9.99073 18.1019L4.89813 13.0093" stroke="#557BDD" stroke-width="1.5" stroke-linecap="round" stroke-linejoin="round"/>
</g>
<defs>
<filter id="filter0_d_302_98" x="-1" y="0" width="28" height="28" filterUnits="userSpaceOnUse" color-interpolation-filters="sRGB">
<feFlood flood-opacity="0" result="BackgroundImageFix"/>
<feColorMatrix in="SourceAlpha" type="matrix" values="0 0 0 0 0 0 0 0 0 0 0 0 0 0 0 0 0 0 127 0" result="hardAlpha"/>
<feOffset dy="4"/>
<feGaussianBlur stdDeviation="2"/>
<feComposite in2="hardAlpha" operator="out"/>
<feColorMatrix type="matrix" values="0 0 0 0 0 0 0 0 0 0 0 0 0 0 0 0 0 0 0.25 0"/>
<feBlend mode="normal" in2="BackgroundImageFix" result="effect1_dropShadow_302_98"/>
<feBlend mode="normal" in="SourceGraphic" in2="effect1_dropShadow_302_98" result="shape"/>
</filter>
<clipPath id="clip0_302_98">
<rect width="20" height="20" fill="white" transform="translate(3)"/>
</clipPath>
</defs>
</svg>
